# AST/ASF file generated using VICON BodyLanguage
# -----------------------------------------------
:version 1.10
:name VICON
:units
  mass 1.0
  length 0.45
  angle deg
:documentation
   .ast/.asf automatically generated from VICON data using
   VICON BodyBuilder and BodyLanguage model FoxedUp or BRILLIANT.MOD
:root
   order TX TY TZ RX RY RZ
   axis XYZ
   position 0 0 0  
   orientation 0 0 0 
:bonedata
  begin
     id 1 
     name lhipjoint
     direction 0.610259 -0.730986 0.305356 
     length 2.50941 
     axis 0 0 0  XYZ
  end
  begin
     id 2 
     name lfemur
     direction 0.34202 -0.939693 0  
     length 7.48822  
     axis 0 0 20  XYZ
    dof rx ry rz
    limits (-160.0 20.0)
           (-70.0 70.0)
           (-60.0 70.0)
  end
  begin
     id 3 
     name ltibia
     direction 0.34202 -0.939693 0   
     length 7.60141   
     axis 0 0 20   XYZ
    dof rx
    limits (-10.0 170.0)
  end
  begin
     id 4 
     name lfoot
     direction 0.0673488 -0.185039 0.980421   
     length 2.04049   
     axis -90 7.62852e-016 20   XYZ
    dof rx rz
    limits (-45.0 90.0)
           (-70.0 20.0)
  end
  begin
     id 5 
     name ltoes
     direction 1.5356e-011 -4.21729e-011 1   
     length 1.02897   
     axis -90 7.62852e-016 20   XYZ
    dof rx
    limits (-90.0 20.0)
  end
  begin
     id 6 
     name rhipjoint
     direction -0.57612 -0.754205 0.315056   
     length 2.43216  
     axis 0 0 0  XYZ 
  end
  begin
     id 7 
     name rfemur
     direction -0.34202 -0.939693 0   
     length 7.42799   
     axis 0 0 -20   XYZ
    dof rx ry rz
    limits (-160.0 20.0)
           (-70.0 70.0)
           (-70.0 60.0)
  end
  begin
     id 8 
     name rtibia
     direction -0.34202 -0.939693 0   
     length 7.69484   
     axis 0 0 -20   XYZ
    dof rx
    limits (-10.0 170.0)
 end
 begin
     id 9 
     name rfoot
     direction -0.111837 -0.30727 0.945028   
     length 2.15769  
     axis -90 -7.62852e-016 -20   XYZ
    dof rx rz
    limits (-45.0 90.0)
           (-20.0 70.0)
  end
  begin
     id 10 
     name rtoes
     direction -1.53539e-011 -4.21878e-011 1   
     length 1.07391   
     axis -90 -7.62852e-016 -20   XYZ
    dof rx
    limits (-90.0 20.0)
  end
  begin
     id 11 
     name lowerback
     direction 0.00552624 0.990109 -0.140195   
     length 2.12403   
     axis 0 0 0   XYZ
    dof rx ry rz
    limits (-20.0 45.0)
           (-30.0 30.0)
           (-30.0 30.0)
  end
  begin
     id 12 
     name upperback
     direction 0.00361898 0.999976 -0.00584723   
     length 2.13232   
     axis 0 0 0   XYZ
    dof rx ry rz
    limits (-20.0 45.0)
           (-30.0 30.0)
           (-30.0 30.0)
  end
  begin
     id 13 
     name thorax
     direction -0.000331275 0.998253 0.0590847   
     length 2.17688   
     axis 0 0 0   XYZ
    dof rx ry rz
    limits (-20.0 45.0)
           (-30.0 30.0)
           (-30.0 30.0)
  end
  begin
     id 14 
     name lowerneck
     direction -0.0561561 0.979832 0.19177   
     length 1.64159   
     axis 0 0 0   XYZ
    dof rx ry rz
    limits (-20.0 45.0)
           (-30.0 30.0)
           (-30.0 30.0)
  end
  begin
     id 15 
     name upperneck
     direction 0.0827153 0.979385 -0.184293   
     length 1.68939   
     axis 0 0 0   XYZ
    dof rx ry rz
    limits (-20.0 45.0)
           (-30.0 30.0)
           (-30.0 30.0)
  end
  begin
     id 16
     name head
     direction 0.0278583 0.995936 -0.0856488  
     length 1.70207  
     axis 0 0 0   XYZ
    dof rx ry rz
    limits (-20.0 45.0)
           (-30.0 30.0)
           (-30.0 30.0)
  end
  begin
     id 17 
     name lclavicle
     direction 0.950993 0.301131 -0.0702275  
     length 3.41652  
     axis 0 0 0   XYZ
    dof ry rz
    limits (-20.0 10.0)
           (0.0 20.0)
  end
  begin
     id 18 
     name lhumerus
     direction 1 -4.48981e-011 -3.9662e-029   
     length 5.32955   
     axis 180 -30 -90   XYZ
    dof rx ry rz
    limits (-60.0 90.0)
           (-90.0 90.0)
           (-90.0 90.0)
  end
  begin
     id 19
     name lradius
     direction 1 -4.48925e-011 -9.0549e-027   
     length 3.69232   
     axis 180 -30 -90   XYZ
    dof rx
    limits (-10.0 170.0)
  end
  begin
     id 20
     name lwrist
     direction 1 -4.49007e-011 -1.49005e-026   
     length 1.84616   
     axis 9.0955e-015 90 90   XYZ
    dof ry
    limits (-180.0 0.0)
 end
  begin
     id 21 
     name lhand
     direction 1 -4.49016e-011 -2.98023e-026   
     length 0.536598   
     axis 1.90115e-014 90 90   XYZ
    dof rx rz
    limits (-90.0 90.0)
           (-45.0 45.0)
  end
  begin
     id 22 
     name lfingers
     direction 1 -4.48924e-011 -5.9578e-026   
     length 0.432619   
     axis 3.80223e-014 90 90   XYZ
    dof rx
    limits (0.0 90.0)
  end
  begin
     id 23
     name lthumb
     direction 0.707107 -6.34947e-011 0.707107   
     length 0.621157   
     axis -90 45 -3.84942e-014   XYZ
    dof rx rz
    limits (-45.0 45.0)
           (-45.0 45.0)
  end
  begin
     id 24 
     name rclavicle
     direction -0.955495 0.276497 -0.102848   
     length 3.36357  
     axis 0 0 0   XYZ 
    dof ry rz
    limits (-10.0 20.0)
           (-20.0 0.0)
  end
  begin
     id 25 
     name rhumerus
     direction -1 -4.48961e-011 3.30983e-027  
     length 5.23431   
     axis 180 30 90   XYZ
    dof rx ry rz
    limits (-90.0 60.0)
           (-90.0 90.0)
           (-90.0 90.0)
  end
  begin
     id 26 
     name rradius
     direction -1 -4.48965e-011 -6.63263e-027   
     length 3.55301   
     axis 180 30 90   XYZ
    dof rx
    limits (-10.0 170.0)
  end
  begin
     id 27 
     name rwrist
     direction -1 -4.48942e-011 -1.48958e-026   
     length 1.77651   
     axis 9.0955e-015 -90 -90   XYZ
    dof ry
    limits (-180.0 0.0)
  end
  begin
     id 28
     name rhand
     direction -1 -4.48977e-011 -2.97966e-026   
     length 0.772522   
     axis 1.90115e-014 -90 -90   XYZ
    dof rx rz
    limits (-90.0 90.0)
           (-45.0 45.0)
  end
  begin
     id 29
     name rfingers
     direction -1 -4.49135e-011 -5.96389e-026   
     length 0.622827   
     axis 3.80223e-014 -90 -90   XYZ
    dof rx
    limits (0.0 90.0)
  end
  begin
     id 30
     name rthumb
     direction -0.707107 -6.34969e-011 0.707107   
     length 0.894259   
     axis -90 -45 3.84942e-014   XYZ
    dof rx rz
    limits (-45.0 45.0)
           (-45.0 45.0)
  end
:hierarchy
  begin
    root lhipjoint rhipjoint lowerback
    lhipjoint lfemur
    lfemur ltibia
    ltibia lfoot
    lfoot ltoes
    rhipjoint rfemur
    rfemur rtibia
    rtibia rfoot
    rfoot rtoes
    lowerback upperback
    upperback thorax
    thorax lowerneck lclavicle rclavicle
    lowerneck upperneck
    upperneck head
    lclavicle lhumerus
    lhumerus lradius
    lradius lwrist
    lwrist lhand lthumb
    lhand lfingers
    rclavicle rhumerus
    rhumerus rradius
    rradius rwrist
    rwrist rhand rthumb
    rhand rfingers
  end

#!OML:ASF F:\VICON\USERDATA\INSTALL\rory3\rory3.ASF
:FULLY-SPECIFIED
:DEGREES
160
root -11.3119 17.6245 7.35558 2.3578 47.9659 4.78895
lowerback 9.34097 1.48173 -3.49795
upperback 2.14619 1.66839 0.178739
thorax -3.10877 0.867777 1.95293
lowerneck -14.5714 7.67963 -5.48834
upperneck 43.4252 13.0458 5.93332
head 17.6582 5.62981 6.18565
rclavicle 3.67752e-014 -1.94809e-014
rhumerus -34.1672 -15.6857 -77.8139
rradius 31.9643
rwrist 9.88626
rhand -12.481 10.5103
rfingers 7.12502
rthumb 13.5934 -19.0259
lclavicle 3.67752e-014 -1.94809e-014
lhumerus -26.6076 -0.466944 83.2216
lradius 28.5783
lwrist -4.62322
lhand -20.0678 26.0301
lfingers 7.12502
lthumb 6.27437 55.9171
rfemur -15.0485 -6.44011 20.0597
rtibia 47.757
rfoot -21.2132 9.32458
rtoes -7.06559
lfemur -9.94961 -4.23888 -22.7107
ltibia 27.9217
lfoot -15.1794 -12.3643
ltoes -6.27555
161
root -11.2734 17.6058 7.33328 2.55326 47.8853 4.99602
lowerback 9.21864 1.56364 -3.45843
upperback 2.123 1.77867 -0.00797073
thorax -3.06477 0.92136 1.72617
lowerneck -14.5525 7.66048 -5.43381
upperneck 43.4064 12.9969 5.94223
head 17.6509 5.62234 6.17043
rclavicle 7.78242e-014 1.63003e-014
rhumerus -34.2998 -15.916 -77.8901
rradius 31.7816
rwrist 10.1551
rhand -12.4537 10.4505
rfingers 7.12502
rthumb 13.6198 -19.084
lclavicle 7.78242e-014 1.63003e-014
lhumerus -26.4183 0.2987 82.7241
lradius 28.1587
lwrist -5.25086
lhand -19.8664 25.8672
lfingers 7.12502
lthumb 6.46875 55.7484
rfemur -14.7898 -6.37034 20.3573
rtibia 47.1001
rfoot -20.5511 9.35063
rtoes 0.137176
lfemur -10.1166 -3.71178 -22.9181
ltibia 28.2568
lfoot -15.7282 -12.7806
ltoes -8.24872
162
root -11.2357 17.5916 7.31029 2.67103 47.8101 5.02983
lowerback 9.05945 1.61822 -3.3605
upperback 2.07773 1.86215 -0.0923015
thorax -3.02257 0.961524 1.5771
lowerneck -14.5145 7.67306 -5.47771
upperneck 43.373 13.0335 5.93412
head 17.6149 5.63422 6.17151
rclavicle 3.78188e-014 -5.1684e-015
rhumerus -34.3878 -15.9095 -77.9327
rradius 31.6917
rwrist 10.2067
rhand -12.394 10.411
rfingers 7.12502
rthumb 13.6773 -19.1196
lclavicle 3.78188e-014 -5.1684e-015
lhumerus -26.4777 0.327277 82.5164
lradius 28.1364
lwrist -4.98039
lhand -20.0048 26.1948
lfingers 7.12502
lthumb 6.33518 56.0801
rfemur -14.526 -6.15066 20.7318
rtibia 46.4054
rfoot -19.6598 8.35524
rtoes 8.01967
lfemur -10.3155 -3.302 -22.9854
ltibia 28.5633
lfoot -16.1813 -13.1998
ltoes -9.37279
163
root -11.1958 17.5797 7.29102 2.71998 47.7511 5.06365
lowerback 8.94308 1.66867 -3.2353
upperback 2.05256 1.94229 -0.153018
thorax -2.98241 0.999861 1.43721
lowerneck -14.4554 7.69797 -5.54014
upperneck 43.3755 13.1276 5.87087
head 17.5953 5.65766 6.16268
rclavicle -3.26504e-014 1.43125e-014
rhumerus -34.4439 -15.7061 -77.9746
rradius 31.6373
rwrist 9.93566
rhand -12.1562 10.1274
rfingers 7.12502
rthumb 13.9065 -19.3876
lclavicle -3.26504e-014 1.43125e-014
lhumerus -26.5744 0.380915 82.4103
lradius 28.14
lwrist -4.84071
lhand -20.07 26.3906
lfingers 7.12502
lthumb 6.2722 56.2778
rfemur -14.1027 -5.86967 21.0041
rtibia 45.6772
rfoot -19.2861 5.49495
rtoes 7.89696
lfemur -10.4238 -2.87884 -23.0482
ltibia 28.8298
lfoot -16.364 -13.9499
ltoes -9.04826
164
root -11.1555 17.5689 7.27389 2.76726 47.7188 5.16749
lowerback 8.84233 1.72143 -3.17006
upperback 2.0884 2.02172 -0.200189
thorax -2.88948 1.03739 1.34602
lowerneck -14.5491 7.6705 -5.60022
upperneck 43.465 13.1854 5.76113
head 17.6776 5.64766 6.15361
rclavicle -6.19711e-014 2.50469e-014
rhumerus -34.4231 -15.6967 -77.928
rradius 31.4446
rwrist 9.92207
rhand -11.7644 9.8873
rfingers 7.12502
rthumb 14.284 -19.6014
lclavicle -6.19711e-014 2.50469e-014
lhumerus -26.5131 0.725151 82.2543
lradius 27.9917
lwrist -5.03328
lhand -20.1241 25.9897
lfingers 7.12502
lthumb 6.22001 55.8784
rfemur -13.5625 -5.56125 21.1345
rtibia 44.9262
rfoot -19.9118 1.46215
rtoes 1.66275
lfemur -10.4478 -2.29463 -23.158
ltibia 29.0549
lfoot -16.5998 -14.8407
ltoes -8.89483
165
root -11.1181 17.5594 7.25557 2.77973 47.7355 5.23946
lowerback 8.79033 1.75218 -3.07034
upperback 2.12664 2.07325 -0.248608
thorax -2.81831 1.06128 1.23635
lowerneck -14.6786 7.64785 -5.70987
upperneck 43.5426 13.2258 5.74265
head 17.7464 5.63591 6.19069
rclavicle 5.51627e-015 -1.98785e-015
rhumerus -34.3835 -15.6491 -77.9241
rradius 31.2406
rwrist 10.0329
rhand -11.7417 9.91922
rfingers 7.12502
rthumb 14.3059 -19.568
lclavicle 5.51627e-015 -1.98785e-015
lhumerus -26.426 0.945666 82.11
lradius 27.8821
lwrist -5.002
lhand -20.3865 25.4587
lfingers 7.12502
lthumb 5.96666 55.3547
rfemur -13.0342 -5.21994 21.2357
rtibia 44.1503
rfoot -20.8769 -1.73688
rtoes -4.00173
lfemur -10.4741 -1.66932 -23.2265
ltibia 29.2873
lfoot -16.7305 -15.8861
ltoes -8.42396
166
root -11.0812 17.5504 7.23355 2.73096 47.7782 5.23349
lowerback 8.87202 1.78596 -2.77091
upperback 2.0458 2.13626 -0.369598
thorax -2.93511 1.09227 0.932265
lowerneck -14.549 7.63995 -5.72245
upperneck 43.557 13.2223 5.74499
head 17.7202 5.63992 6.18391
rclavicle 2.88238e-015 2.78299e-015
rhumerus -34.6037 -15.4581 -78.0163
rradius 31.1864
rwrist 9.91579
rhand -12.0834 9.94161
rfingers 7.12502
rthumb 13.9766 -19.5686
lclavicle 2.88238e-015 2.78299e-015
lhumerus -26.5062 1.01517 81.9178
lradius 27.7823
lwrist -5.1081
lhand -20.4495 25.1182
lfingers 7.12502
lthumb 5.90584 55.0159
rfemur -12.5469 -4.80409 21.3562
rtibia 43.3539
rfoot -21.0973 -2.75118
rtoes -1.57538
lfemur -10.5589 -1.21154 -23.2525
ltibia 29.5659
lfoot -16.5539 -16.9414
ltoes -6.8335
167
root -11.0439 17.5401 7.20751 2.64938 47.8012 5.26736
lowerback 9.05008 1.81025 -2.46202
upperback 1.96798 2.18515 -0.498492
thorax -3.10013 1.11597 0.613109
lowerneck -14.4361 7.62889 -5.74434
upperneck 43.6195 13.2389 5.72217
head 17.728 5.64308 6.17828
rclavicle -1.03343e-013 4.57205e-015
rhumerus -34.756 -15.3084 -78.0599
rradius 31.0505
rwrist 9.89334
rhand -12.1561 9.79511
rfingers 7.12502
rthumb 13.9066 -19.7199
lclavicle -1.03343e-013 4.57205e-015
lhumerus -26.6647 1.20787 81.6965
lradius 27.7007
lwrist -5.40543
lhand -20.3017 25.0006
lfingers 7.12502
lthumb 6.04858 54.8942
rfemur -11.9856 -4.39967 21.4048
rtibia 42.5496
rfoot -20.8677 -2.39193
rtoes 5.58977
lfemur -10.6291 -0.640272 -23.3563
ltibia 29.9078
lfoot -16.6235 -17.7594
ltoes -6.87309
168
root -11.0069 17.5329 7.18019 2.61769 47.7598 5.30301
lowerback 9.11486 1.83598 -2.21142
upperback 1.97261 2.23873 -0.574131
thorax -3.12045 1.14068 0.386208
lowerneck -14.5538 7.63433 -5.80348
upperneck 43.7141 13.3139 5.69303
head 17.807 5.65081 6.20903
rclavicle -2.68111e-014 1.43125e-014
rhumerus -34.678 -15.1964 -78.071
rradius 30.8582
rwrist 9.90236
rhand -12.0924 9.89226
rfingers 7.12502
rthumb 13.9679 -19.6185
lclavicle -2.68111e-014 1.43125e-014
lhumerus -26.6854 1.70139 81.4765
lradius 27.5892
lwrist -5.9795
lhand -20.1724 24.5449
lfingers 7.12502
lthumb 6.17336 54.435
rfemur -11.4774 -4.0479 21.4091
rtibia 41.777
rfoot -21.2541 -2.55272
rtoes 11.4178
lfemur -10.7699 -0.278704 -23.484
ltibia 30.3276
lfoot -16.7845 -18.2312
ltoes -7.39852
169
root -10.9706 17.5266 7.15211 2.60543 47.6428 5.25725
lowerback 9.05577 1.85835 -1.98749
upperback 1.99545 2.29141 -0.578108
thorax -3.05657 1.16462 0.252998
lowerneck -14.6726 7.6929 -5.81518
upperneck 43.7719 13.4902 5.5669
head 17.8733 5.69365 6.20018
rclavicle 3.42904e-014 -5.1684e-015
rhumerus -34.5812 -14.8549 -78.1123
rradius 30.8157
rwrist 9.68633
rhand -12.0418 9.85111
rfingers 7.12502
rthumb 14.0168 -19.6563
lclavicle 3.42904e-014 -5.1684e-015
lhumerus -26.6682 2.28088 81.3374
lradius 27.5264
lwrist -6.54921
lhand -20.2498 24.2853
lfingers 7.12502
lthumb 6.09868 54.1776
rfemur -11.0778 -3.50428 21.4431
rtibia 41.0768
rfoot -21.9771 -3.56892
rtoes 12.7456
lfemur -10.9664 -0.183553 -23.5255
ltibia 30.8227
lfoot -16.682 -18.6412
ltoes -6.88258
170
root -10.9374 17.5201 7.12261 2.57741 47.5883 5.2457
lowerback 9.12677 1.90741 -1.76791
upperback 1.97311 2.37475 -0.579764
thorax -3.11196 1.20455 0.115563
lowerneck -14.7057 7.70605 -5.89249
upperneck 43.8461 13.5922 5.50245
head 17.9195 5.70967 6.21226
rclavicle -3.24764e-014 1.39149e-015
rhumerus -34.6163 -14.6963 -78.0063
rradius 30.7989
rwrist 9.62887
rhand -11.9252 9.782
rfingers 7.12502
rthumb 14.1291 -19.7176
lclavicle -3.24764e-014 1.39149e-015
lhumerus -26.7826 2.35209 81.3747
lradius 27.6563
lwrist -6.56794
lhand -20.4818 24.6236
lfingers 7.12502
lthumb 5.87462 54.5222
rfemur -10.6559 -2.96493 21.4156
rtibia 40.4636
rfoot -22.1857 -4.50827
rtoes 10.1504
lfemur -11.128 0.12495 -23.597
ltibia 31.3751
lfoot -16.9852 -18.9164
ltoes -8.17498
171
root -10.9058 17.5125 7.09127 2.55813 47.6199 5.23832
lowerback 9.20172 1.96133 -1.44706
upperback 1.97368 2.47362 -0.630283
thorax -3.13892 1.25116 -0.130667
lowerneck -14.76 7.66904 -6.00351
upperneck 43.8439 13.5864 5.49822
head 17.9236 5.68987 6.23231
rclavicle -5.46161e-014 1.03368e-014
rhumerus -34.6082 -14.8236 -77.845
rradius 30.721
rwrist 9.78485
rhand -11.86 9.90056
rfingers 7.12502
rthumb 14.1919 -19.5946
lclavicle -5.46161e-014 1.03368e-014
lhumerus -26.8265 2.50978 81.3429
lradius 27.7525
lwrist -6.72551
lhand -20.4705 24.6986
lfingers 7.12502
lthumb 5.88558 54.5968
rfemur -10.2834 -2.43881 21.359
rtibia 39.9506
rfoot -21.9298 -5.13826
rtoes 6.70136
lfemur -11.4054 0.541171 -23.6787
ltibia 31.9789
lfoot -17.17 -19.3215
ltoes -8.37268
172
root -10.8752 17.5105 7.05934 2.55293 47.651 5.26427
lowerback 9.27162 1.98525 -1.1804
upperback 2.00919 2.52987 -0.650703
thorax -3.12905 1.27708 -0.30949
lowerneck -14.8435 7.65829 -6.1099
upperneck 43.8254 13.6525 5.41492
head 17.9309 5.68684 6.22804
rclavicle -3.1085e-014 1.03368e-014
rhumerus -34.4804 -14.7119 -77.7544
rradius 30.6235
rwrist 9.8151
rhand -12.2497 9.91737
rfingers 7.12502
rthumb 13.8164 -19.6038
lclavicle -3.1085e-014 1.03368e-014
lhumerus -26.8048 3.19915 81.2435
lradius 27.7288
lwrist -7.28503
lhand -20.0511 23.6338
lfingers 7.12502
lthumb 6.29052 53.5204
rfemur -9.97469 -1.95603 21.2351
rtibia 39.5534
rfoot -21.8226 -5.55787
rtoes 5.22741
lfemur -11.7802 1.03202 -23.7672
ltibia 32.6473
lfoot -17.0431 -19.9268
ltoes -8.95552
173
root -10.8474 17.5115 7.02509 2.45443 47.5919 5.24245
lowerback 9.49783 2.04958 -0.933073
upperback 2.00246 2.63571 -0.652826
thorax -3.25067 1.32769 -0.4719
lowerneck -14.8632 7.64775 -6.14333
upperneck 43.8404 13.721 5.28205
head 17.9561 5.6894 6.19018
rclavicle -3.77691e-014 1.39149e-014
rhumerus -34.4129 -14.6206 -77.6427
rradius 30.4842
rwrist 9.82893
rhand -12.6331 9.85105
rfingers 7.12502
rthumb 13.4469 -19.6949
lclavicle -3.77691e-014 1.39149e-014
lhumerus -26.8976 3.7362 81.172
lradius 27.7432
lwrist -7.70875
lhand -19.883 22.9386
lfingers 7.12502
lthumb 6.45279 52.8203
rfemur -9.70318 -1.6669 21.1061
rtibia 39.259
rfoot -22.1436 -5.62158
rtoes 6.61696
lfemur -12.1033 1.50769 -23.7916
ltibia 33.4044
lfoot -17.0861 -20.3751
ltoes -11.9064
